<svg xmlns="http://www.w3.org/2000/svg" viewBox="0 0 410 404"><defs><linearGradient id="a" x1="50%" x2="50%" y1="0%" y2="100%"><stop stop-color="#41D1FF" offset="0%"/><stop stop-color="#BD34FE" offset="100%"/></linearGradient></defs><g fill="none"><path fill="#41D1FF" d="M399 64L215 380c-7 12-24 12-31 0L11 64C4 52 13 37 27 37h356c14 0 23 15 16 27z"/><path fill="#FFF" fill-opacity=".7" d="M210 32l-1 347c0 13-16 18-23 7L12 64C5 52 14 37 28 37h354c14 0 23 15 16 27L233 386c-7 11-23 6-23-7V32z"/><path fill="url(#a)" d="M210 32l-1 347c0 13-16 18-23 7L12 64C5 52 14 37 28 37h354c14 0 23 15 16 27L233 386c-7 11-23 6-23-7V32z"/></g></svg>